<svg width="12" height="12" viewBox="0 0 12 12" fill="none" xmlns="http://www.w3.org/2000/svg">
<g clip-path="url(#clip0_1_316)">
<path d="M2.70942 2.14844C4.24153 2.14844 5.45127 3.39065 5.45127 4.92276C5.45127 6.45488 4.19295 7.69709 2.66084 7.69709C2.64551 7.69709 2.62239 7.69501 2.60707 7.69475C3.21285 8.17714 3.97371 8.46782 4.80653 8.46782C5.18969 8.46782 5.49803 8.77851 5.49803 9.16141C5.49803 9.5443 5.25151 9.85499 4.86835 9.85499C2.14884 9.85473 3.14678e-05 7.64228 3.17056e-05 4.92276C3.17056e-05 4.92224 3.17056e-05 4.92172 3.17057e-05 4.92095C3.18396e-05 3.38961 1.17782 2.14844 2.70942 2.14844Z" fill="black"/>
<path d="M9.20749 2.14844C10.7396 2.14844 11.9514 3.39065 11.9514 4.92276C11.9514 6.45488 10.6941 7.69709 9.16177 7.69709C9.14644 7.69709 9.12384 7.69501 9.10852 7.69475C9.7143 8.17714 10.4754 8.46782 11.3082 8.46782C11.6914 8.46782 12 8.77851 12 9.16141C12 9.5443 11.7496 9.85499 11.3664 9.85499C8.64691 9.85473 6.49421 7.64228 6.49421 4.92276C6.49421 4.92224 6.49421 4.92172 6.49421 4.92095C6.49421 3.38961 7.6759 2.14844 9.20749 2.14844Z" fill="black"/>
</g>
<defs>
<clipPath id="clip0_1_316">
<rect width="12" height="12" fill="white" transform="matrix(-1 -8.74228e-08 -8.74228e-08 1 12 0)"/>
</clipPath>
</defs>
</svg>
