<svg width="12" height="12" viewBox="0 0 12 12" fill="none" xmlns="http://www.w3.org/2000/svg">
<g clip-path="url(#clip0_1_310)">
<path d="M9.29058 9.85156C7.75847 9.85156 6.54873 8.60935 6.54873 7.07724C6.54873 5.54512 7.80705 4.30291 9.33916 4.30291C9.35449 4.30291 9.37761 4.30499 9.39293 4.30525C8.78715 3.82286 8.02629 3.53218 7.19347 3.53218C6.81031 3.53218 6.50197 3.22149 6.50197 2.83859C6.50197 2.4557 6.74849 2.14501 7.13165 2.14501C9.85116 2.14527 12 4.35772 12 7.07724C12 7.07776 12 7.07828 12 7.07905C12 8.61039 10.8222 9.85156 9.29058 9.85156Z" fill="black"/>
<path d="M2.79251 9.85156C1.2604 9.85156 0.0485768 8.60935 0.0485769 7.07724C0.0485771 5.54512 1.30586 4.30291 2.83823 4.30291C2.85356 4.30291 2.87616 4.30499 2.89148 4.30525C2.2857 3.82286 1.52458 3.53218 0.691764 3.53218C0.308605 3.53218 5.79619e-07 3.22149 6.13093e-07 2.83859C6.46567e-07 2.4557 0.250417 2.14501 0.633576 2.14501C3.35309 2.14527 5.50579 4.35772 5.50579 7.07724C5.50579 7.07776 5.50579 7.07828 5.50579 7.07905C5.50579 8.61039 4.3241 9.85156 2.79251 9.85156Z" fill="black"/>
</g>
<defs>
<clipPath id="clip0_1_310">
<rect width="12" height="12" fill="white" transform="matrix(1 8.74228e-08 8.74228e-08 -1 0 12)"/>
</clipPath>
</defs>
</svg>
