<svg width="80" height="8" viewBox="0 0 80 8" fill="none" xmlns="http://www.w3.org/2000/svg">
<path d="M78.6421 2.71206C76.4093 2.71206 75.3626 3.67172 74.0377 4.88669C72.5616 6.24024 70.8886 7.77441 67.6007 7.77441C64.3128 7.77441 62.6397 6.24024 61.1635 4.88669C59.8387 3.67172 58.7922 2.71206 56.5594 2.71206C54.3267 2.71206 53.2802 3.67172 51.9554 4.88669C50.4792 6.24024 48.8062 7.77441 45.5184 7.77441C42.2305 7.77441 40.5576 6.24024 39.0814 4.88653C37.7567 3.67156 36.7102 2.71206 34.4776 2.71206C32.2452 2.71206 31.1988 3.67172 29.874 4.88653C28.3979 6.24008 26.725 7.77441 23.4373 7.77441C20.1496 7.77441 18.4767 6.24024 17.0004 4.88669C15.6758 3.67172 14.6293 2.71206 12.3967 2.71206C10.1641 2.71206 9.11755 3.67172 7.79274 4.88669C6.31653 6.24008 4.64361 7.77441 1.3559 7.77441C0.606857 7.77441 0 7.16724 0 6.41852C0 5.66979 0.606857 5.06262 1.3559 5.06262C3.58849 5.06262 4.63502 4.10296 5.95967 2.88815C7.43572 1.5346 9.1088 0.000264645 12.3967 0.000264645C15.6844 0.000264645 17.3573 1.53444 18.8335 2.88784C20.1582 4.1028 21.2047 5.06246 23.4373 5.06246C25.6697 5.06246 26.7161 4.1028 28.0409 2.88799C29.517 1.53444 31.1899 0.000109673 34.4776 0.000109673C37.7653 0.000109673 39.4382 1.53413 40.9144 2.88768C42.2392 4.10264 43.2858 5.06231 45.5184 5.06231C47.751 5.06231 48.7975 4.10265 50.1223 2.88784C51.5985 1.53428 53.2716 -4.76837e-05 56.5593 -4.76837e-05C59.847 -4.76837e-05 61.5201 1.53397 62.9963 2.88753C64.3214 4.10249 65.3678 5.06215 67.6007 5.06215C69.8334 5.06215 70.8801 4.10249 72.2051 2.88753C73.6811 1.53397 75.3542 -4.76837e-05 78.6421 -4.76837e-05C79.3911 -4.76837e-05 79.998 0.607123 79.998 1.35585C79.9981 2.10489 79.3911 2.71206 78.6421 2.71206Z" fill="#746969"/>
</svg>
