<svg width="103" height="32" viewBox="0 0 103 32" fill="none" xmlns="http://www.w3.org/2000/svg">
<path d="M39.928 20.808H33.256L32.152 24H28.624L34.648 7.224H38.56L44.584 24H41.032L39.928 20.808ZM39.016 18.12L36.592 11.112L34.168 18.12H39.016ZM49.4757 12.624C49.9077 12.016 50.4997 11.512 51.2517 11.112C52.0197 10.696 52.8917 10.488 53.8677 10.488C55.0037 10.488 56.0277 10.768 56.9397 11.328C57.8677 11.888 58.5957 12.688 59.1237 13.728C59.6677 14.752 59.9397 15.944 59.9397 17.304C59.9397 18.664 59.6677 19.872 59.1237 20.928C58.5957 21.968 57.8677 22.776 56.9397 23.352C56.0277 23.928 55.0037 24.216 53.8677 24.216C52.8917 24.216 52.0277 24.016 51.2757 23.616C50.5397 23.216 49.9397 22.712 49.4757 22.104V30.336H46.1157V10.704H49.4757V12.624ZM56.5077 17.304C56.5077 16.504 56.3397 15.816 56.0037 15.24C55.6837 14.648 55.2517 14.2 54.7077 13.896C54.1797 13.592 53.6037 13.44 52.9797 13.44C52.3717 13.44 51.7957 13.6 51.2517 13.92C50.7237 14.224 50.2917 14.672 49.9557 15.264C49.6357 15.856 49.4757 16.552 49.4757 17.352C49.4757 18.152 49.6357 18.848 49.9557 19.44C50.2917 20.032 50.7237 20.488 51.2517 20.808C51.7957 21.112 52.3717 21.264 52.9797 21.264C53.6037 21.264 54.1797 21.104 54.7077 20.784C55.2517 20.464 55.6837 20.008 56.0037 19.416C56.3397 18.824 56.5077 18.12 56.5077 17.304ZM65.0213 12.624C65.4533 12.016 66.0453 11.512 66.7973 11.112C67.5653 10.696 68.4373 10.488 69.4133 10.488C70.5493 10.488 71.5733 10.768 72.4853 11.328C73.4133 11.888 74.1413 12.688 74.6693 13.728C75.2133 14.752 75.4853 15.944 75.4853 17.304C75.4853 18.664 75.2133 19.872 74.6693 20.928C74.1413 21.968 73.4133 22.776 72.4853 23.352C71.5733 23.928 70.5493 24.216 69.4133 24.216C68.4373 24.216 67.5733 24.016 66.8213 23.616C66.0853 23.216 65.4853 22.712 65.0213 22.104V30.336H61.6613V10.704H65.0213V12.624ZM72.0533 17.304C72.0533 16.504 71.8853 15.816 71.5493 15.24C71.2293 14.648 70.7973 14.2 70.2533 13.896C69.7253 13.592 69.1493 13.44 68.5253 13.44C67.9173 13.44 67.3413 13.6 66.7973 13.92C66.2693 14.224 65.8373 14.672 65.5013 15.264C65.1813 15.856 65.0213 16.552 65.0213 17.352C65.0213 18.152 65.1813 18.848 65.5013 19.44C65.8373 20.032 66.2693 20.488 66.7973 20.808C67.3413 21.112 67.9173 21.264 68.5253 21.264C69.1493 21.264 69.7253 21.104 70.2533 20.784C70.7973 20.464 71.2293 20.008 71.5493 19.416C71.8853 18.824 72.0533 18.12 72.0533 17.304ZM89.5669 17.064C89.5669 17.544 89.5349 17.976 89.4709 18.36H79.7509C79.8309 19.32 80.1669 20.072 80.7589 20.616C81.3509 21.16 82.0789 21.432 82.9429 21.432C84.1909 21.432 85.0789 20.896 85.6069 19.824H89.2309C88.8469 21.104 88.1109 22.16 87.0229 22.992C85.9349 23.808 84.5989 24.216 83.0149 24.216C81.7349 24.216 80.5829 23.936 79.5589 23.376C78.5509 22.8 77.7589 21.992 77.1829 20.952C76.6229 19.912 76.3429 18.712 76.3429 17.352C76.3429 15.976 76.6229 14.768 77.1829 13.728C77.7429 12.688 78.5269 11.888 79.5349 11.328C80.5429 10.768 81.7029 10.488 83.0149 10.488C84.2789 10.488 85.4069 10.76 86.3989 11.304C87.4069 11.848 88.1829 12.624 88.7269 13.632C89.2869 14.624 89.5669 15.768 89.5669 17.064ZM86.0869 16.104C86.0709 15.24 85.7589 14.552 85.1509 14.04C84.5429 13.512 83.7989 13.248 82.9189 13.248C82.0869 13.248 81.3829 13.504 80.8069 14.016C80.2469 14.512 79.9029 15.208 79.7749 16.104H86.0869ZM98.6434 24L95.9074 19.872L93.4834 24H89.8834L94.2274 17.328L89.8354 10.704H93.6274L96.3394 14.808L98.7874 10.704H102.387L98.0194 17.328L102.435 24H98.6434Z" fill="white"/>
<path d="M0.749989 31.9999L20.7501 21.5V10L0.749992 20.4999L0.749989 31.9999Z" fill="#2AABCB"/>
<path d="M20.7501 10L0.750122 3V15.5L20.7501 21.5V10Z" fill="#6AE0FD"/>
</svg>
