<svg width="11" height="11" viewBox="0 0 11 11" fill="none" xmlns="http://www.w3.org/2000/svg">
<path d="M9.18201 0.656006H1.87401C1.20228 0.656006 0.656006 1.20228 0.656006 1.87401V9.18201C0.656006 9.85373 1.20228 10.4 1.87401 10.4H9.18201C9.85373 10.4 10.4 9.85373 10.4 9.18201V1.87401C10.4 1.20228 9.85373 0.656006 9.18201 0.656006Z" fill="#1976D2"/>
<path fill-rule="evenodd" clip-rule="evenodd" d="M8.8778 5.52913H7.3553V4.31113C7.3553 3.97496 7.62813 4.00663 7.9643 4.00663H8.5733V2.48413H7.3553C6.87075 2.48413 6.40605 2.67662 6.06342 3.01925C5.72079 3.36188 5.5283 3.82658 5.5283 4.31113V5.52913H4.3103V7.05163H5.5283V10.4011H7.3553V7.05163H8.2688L8.8778 5.52913Z" fill="#FAFAFA"/>
</svg>
