<svg width="40" height="40" viewBox="0 0 40 40" fill="none" xmlns="http://www.w3.org/2000/svg">
<path d="M26.9531 6.95312C24.041 6.95312 21.3488 7.91242 19.1755 9.53125H7.8125C6.94953 9.53125 6.25 10.2308 6.25 11.0938C6.25 11.9567 6.94953 12.6562 7.8125 12.6562H16.1751C15.0223 14.3428 14.2549 16.3124 14.0002 18.4375H4.6875C3.82453 18.4375 3.125 19.137 3.125 20C3.125 20.863 3.82453 21.5625 4.6875 21.5625H14.0002C14.2549 23.6876 15.0223 25.6572 16.1751 27.3438H1.5625C0.699531 27.3438 0 28.0433 0 28.9062C0 29.7692 0.699531 30.4688 1.5625 30.4688H18.9844C19.0441 30.4688 19.1029 30.4647 19.1609 30.4581C21.3368 32.0834 24.0345 33.0469 26.9531 33.0469C28.8409 33.0469 30.6627 32.652 32.3679 31.8733C33.1529 31.5148 33.4986 30.5878 33.1401 29.8029C32.7815 29.018 31.8545 28.6722 31.0697 29.0307C29.7748 29.622 28.3898 29.9219 26.9531 29.9219C21.4822 29.9219 17.0312 25.4709 17.0312 20C17.0312 14.5291 21.4822 10.0781 26.9531 10.0781C32.4241 10.0781 36.875 14.5291 36.875 20C36.875 21.4245 36.5801 22.7987 35.9983 24.0846C35.6425 24.8709 35.9916 25.7966 36.7778 26.1523C37.5641 26.508 38.4898 26.159 38.8455 25.3727C39.6116 23.6794 40 21.8717 40 20C40 12.8059 34.1472 6.95312 26.9531 6.95312Z" fill="black"/>
</svg>
