<svg width="40" height="40" viewBox="0 0 40 40" fill="none" xmlns="http://www.w3.org/2000/svg">
<g clip-path="url(#clip0_1_326)">
<path d="M9.38208 10.5997C9.74294 10.3375 9.92373 9.8932 9.84826 9.45352L9.42622 6.99273L11.2141 5.25C11.5335 4.93867 11.6485 4.47297 11.5107 4.04867C11.3728 3.62445 11.0061 3.31523 10.5647 3.25109L8.09396 2.89211L6.98888 0.653203C6.79146 0.253203 6.38404 0 5.93802 0C5.49201 0 5.08458 0.253281 4.88716 0.653281L3.78224 2.89211L1.31146 3.25117C0.870052 3.31531 0.503255 3.62453 0.365442 4.04875C0.227552 4.47297 0.342552 4.93867 0.661927 5.25L2.44982 6.99273L2.02779 9.45352C1.9524 9.89312 2.1331 10.3375 2.49396 10.5997C2.85497 10.8619 3.33333 10.8964 3.7281 10.6889L5.93802 9.52711L8.14794 10.6889C8.54435 10.8973 9.02271 10.8608 9.38208 10.5997ZM7.34904 5.74445C7.07286 6.01367 6.94685 6.40156 7.01201 6.78172L7.13685 7.50945L6.48333 7.16586C6.31263 7.07609 6.12529 7.03125 5.93802 7.03125C5.75076 7.03125 5.56341 7.07609 5.39271 7.16586L4.73919 7.50945L4.86404 6.78172C4.92919 6.40156 4.80318 6.01367 4.52701 5.74445L3.99826 5.22906L4.72896 5.12289C5.11068 5.06742 5.4406 4.82773 5.6113 4.4818L5.93802 3.81977L6.26482 4.48187C6.43552 4.82773 6.76552 5.0675 7.14716 5.12297L7.87787 5.22914L7.34904 5.74445Z" fill="#36D7FF"/>
<path d="M16.5123 6.99273L16.0903 9.45352C16.0149 9.89312 16.1956 10.3375 16.5565 10.5997C16.9173 10.8619 17.3958 10.8964 17.7906 10.6889L20.0005 9.52711L22.2105 10.6889C22.6069 10.8973 23.0852 10.8608 23.4446 10.5997C23.8055 10.3375 23.9862 9.8932 23.9108 9.45352L23.4887 6.99273L25.2766 5.25C25.596 4.93867 25.711 4.47297 25.5732 4.04867C25.4353 3.62445 25.0686 3.31523 24.6272 3.25109L22.1565 2.89211L21.0514 0.653203C20.854 0.253203 20.4466 0 20.0005 0C19.5545 0 19.1471 0.253281 18.9497 0.653281L17.8448 2.89219L15.374 3.25117C14.9326 3.31531 14.5658 3.62453 14.428 4.04875C14.2901 4.47297 14.4051 4.93867 14.7244 5.25008L16.5123 6.99273ZM18.7914 5.12297C19.1731 5.0675 19.503 4.82781 19.6737 4.48187L20.0005 3.81977L20.3273 4.48187C20.498 4.82773 20.828 5.0675 21.2097 5.12297L21.9404 5.22914L21.4116 5.74453C21.1355 6.01375 21.0094 6.40164 21.0746 6.7818L21.1994 7.50953L20.5459 7.16594C20.3751 7.07609 20.1878 7.03125 20.0005 7.03125C19.8133 7.03125 19.6259 7.07609 19.4552 7.16586L18.8017 7.50945L18.9266 6.78172C18.9917 6.40156 18.8657 6.01367 18.5895 5.74445L18.0608 5.22906L18.7914 5.12297Z" fill="#36D7FF"/>
<path d="M39.6356 4.04875C39.4977 3.62453 39.131 3.31531 38.6896 3.25117L36.2189 2.89219L35.1139 0.653203C34.9165 0.253203 34.509 0 34.063 0C33.617 0 33.2096 0.253281 33.0122 0.653281L31.9073 2.89219L29.4365 3.25117C28.9951 3.31531 28.6283 3.62453 28.4905 4.04875C28.3526 4.47297 28.4676 4.93867 28.7869 5.25008L30.5748 6.99281L30.1528 9.45359C30.0774 9.8932 30.2581 10.3376 30.619 10.5998C30.9799 10.862 31.4583 10.8965 31.8531 10.689L34.063 9.52711L36.2729 10.6889C36.6694 10.8973 37.1477 10.8608 37.5071 10.5997C37.868 10.3375 38.0487 9.8932 37.9733 9.45352L37.5512 6.99273L39.3391 5.25C39.6585 4.93867 39.7735 4.47297 39.6356 4.04875ZM35.474 5.74445C35.1979 6.01367 35.0719 6.40156 35.137 6.78172L35.2619 7.50945L34.6083 7.16586C34.4376 7.07609 34.2503 7.03125 34.063 7.03125C33.8758 7.03125 33.6884 7.07609 33.5177 7.16586L32.8642 7.50945L32.989 6.78172C33.0542 6.40156 32.9282 6.01367 32.652 5.74445L32.1233 5.22906L32.854 5.12289C33.2357 5.06742 33.5656 4.82773 33.7363 4.4818L34.063 3.81977L34.3898 4.48187C34.5605 4.82773 34.8905 5.0675 35.2722 5.12297L36.0029 5.22914L35.474 5.74445Z" fill="#36D7FF"/>
<path d="M19.9663 14.2188C12.8584 14.2188 7.07568 20.0015 7.07568 27.1094C7.07568 34.2173 12.8584 40 19.9663 40C27.0742 40 32.8569 34.2173 32.8569 27.1094C32.8569 20.0015 27.0743 14.2188 19.9663 14.2188ZM19.9663 37.6562C14.1508 37.6562 9.41943 32.9249 9.41943 27.1094C9.41943 21.2938 14.1508 16.5625 19.9663 16.5625C25.7819 16.5625 30.5132 21.2938 30.5132 27.1094C30.5132 32.9249 25.7819 37.6562 19.9663 37.6562Z" fill="#36D7FF"/>
<path d="M12.9351 24.7656C12.2879 24.7656 11.7632 25.2903 11.7632 25.9375C11.7632 30.4607 15.4431 34.1406 19.9663 34.1406C24.4895 34.1406 28.1694 30.4607 28.1694 25.9375C28.1694 25.2903 27.6447 24.7656 26.9975 24.7656H12.9351ZM19.9663 31.7969C17.1367 31.7969 14.7691 29.7805 14.2247 27.1094H25.7079C25.1635 29.7805 22.7959 31.7969 19.9663 31.7969Z" fill="#36D7FF"/>
<path d="M23.4819 22.4219C24.1291 22.4219 24.6538 21.8972 24.6538 21.25C24.6538 20.6028 24.1291 20.0781 23.4819 20.0781C22.8347 20.0781 22.3101 20.6028 22.3101 21.25C22.3101 21.8972 22.8347 22.4219 23.4819 22.4219Z" fill="#36D7FF"/>
<path d="M16.4507 22.4219C17.0979 22.4219 17.6226 21.8972 17.6226 21.25C17.6226 20.6028 17.0979 20.0781 16.4507 20.0781C15.8035 20.0781 15.2788 20.6028 15.2788 21.25C15.2788 21.8972 15.8035 22.4219 16.4507 22.4219Z" fill="#36D7FF"/>
</g>
<defs>
<clipPath id="clip0_1_326">
<rect width="40" height="40" fill="white"/>
</clipPath>
</defs>
</svg>
