<svg width="26" height="25" viewBox="0 0 26 25" fill="none" xmlns="http://www.w3.org/2000/svg">
<rect x="0.71875" width="24.36" height="24.36" rx="12.18" fill="#F3F8FC"/>
<path fill-rule="evenodd" clip-rule="evenodd" d="M18.8137 18.0969H16.3524V14.1821C16.3524 13.1576 15.9677 12.4579 15.1209 12.4579C14.4735 12.4579 14.1133 12.9301 13.9458 13.385C13.8828 13.5482 13.8926 13.7756 13.8926 14.0031V18.0969H11.4544C11.4544 18.0969 11.4857 11.1623 11.4544 10.532H13.8926V11.7194C14.0369 11.2001 14.8159 10.4593 16.0591 10.4593C17.6017 10.4593 18.8137 11.5473 18.8137 13.8906V18.0969ZM8.98874 9.5857H8.9728C8.18721 9.5857 7.67773 9.00745 7.67773 8.27443C7.67773 7.5272 8.20214 6.96094 9.00368 6.96094C9.80446 6.96094 10.297 7.52581 10.3124 8.2722C10.3124 9.00523 9.80446 9.5857 8.98874 9.5857ZM7.95866 10.532H10.1292V18.0969H7.95866V10.532Z" fill="#007EBB"/>
</svg>
