<svg width="128" height="46" viewBox="0 0 128 46" fill="none" xmlns="http://www.w3.org/2000/svg">
<path d="M92.216 37.8659C88.8906 37.8659 88.1974 36.1767 88.1974 34.7607V14.0921C88.1974 13.0115 88.5264 12.1371 89.1794 11.4937C89.8324 10.8502 90.8723 10.5223 92.2737 10.5223C93.4542 10.5223 94.3885 10.7881 95.0541 11.3148C95.7196 11.8414 96.0888 12.691 96.0888 13.7841V34.6514C96.0888 35.7867 95.7272 36.6213 95.0139 37.1356C94.3006 37.6498 93.3839 37.8659 92.216 37.8659Z" fill="#000546"/>
<path d="M92.216 8.30394C90.92 8.30394 89.8576 7.92883 89.0539 7.18854C88.2501 6.44825 87.8307 5.42724 87.8307 4.17272C87.7998 3.06054 88.2417 1.98647 89.0488 1.21155C89.845 0.438964 90.9124 0.0439758 92.216 0.0439758C93.2909 0.0462944 94.3358 0.395145 95.1922 1.03766C96.1265 1.71833 96.6012 2.7766 96.6012 4.18265C96.6012 5.43718 96.1893 6.45321 95.3781 7.20096C94.5668 7.9487 93.5044 8.31139 92.216 8.31139V8.30394Z" fill="#000546"/>
<path d="M62.863 37.5082C62.0465 37.5381 61.2567 37.2186 60.6954 36.6313C60.146 36.0385 59.8531 35.2565 59.8792 34.4527C59.8715 33.6431 60.0739 32.8451 60.4669 32.1349C60.8122 31.4999 61.2338 30.9085 61.7227 30.3736L73.8562 16.8049H63.2799C62.2551 16.8049 61.5218 16.4571 61.1199 15.7665C60.7286 15.0728 60.5334 14.2876 60.5548 13.4935C60.5265 12.7281 60.7495 11.9743 61.1902 11.3446C61.6271 10.7488 62.3381 10.4107 63.0815 10.4454H81.7678C82.5578 10.4094 83.3284 10.6948 83.9001 11.2353C84.4301 11.7595 84.6988 12.5048 84.6988 13.4488C84.7212 14.1838 84.5662 14.9136 84.2467 15.5777C83.9401 16.1563 83.5557 16.6911 83.1039 17.1676L70.4681 31.1462H82.4409C83.1611 31.1285 83.8468 31.4514 84.2869 32.0157C84.7558 32.6465 84.9924 33.417 84.9575 34.1993C84.9917 35.0143 84.7942 35.8224 84.3874 36.5319C83.978 37.1803 83.2521 37.5107 82.2324 37.5107L62.863 37.5082Z" fill="#000546"/>
<path fill-rule="evenodd" clip-rule="evenodd" d="M100.992 42.6286C100.992 44.0694 101.65 45.786 104.759 45.786C106.133 45.786 107.102 45.545 107.733 45.0184C108.363 44.4917 108.682 43.6371 108.682 42.4795V35.8218C109.007 36.164 109.369 36.4697 109.762 36.7335C110.487 37.2161 111.273 37.6013 112.1 37.8787C113.252 38.2419 114.458 38.4099 115.667 38.3756C117.472 38.4051 119.26 38.0341 120.901 37.2899C122.409 36.5864 123.736 35.5546 124.784 34.2716C125.871 32.91 126.684 31.355 127.18 29.6907C127.741 27.817 128.017 25.8713 127.999 23.9174C128.014 21.9991 127.774 20.0873 127.285 18.231C126.858 16.5882 126.116 15.0416 125.1 13.6749C124.126 12.3971 122.862 11.3626 121.411 10.6541C119.825 9.90481 118.084 9.53222 116.327 9.56598C114.494 9.53976 112.691 10.0365 111.136 10.9969C110.496 11.3877 109.906 11.8531 109.378 12.3831C109.185 12.5835 109.005 12.7789 108.838 12.9694C108.838 11.7894 108.408 10.9671 107.582 10.5473C106.803 10.1598 105.942 9.96215 105.07 9.97091C103.669 9.97091 102.627 10.2988 101.976 10.9422C101.321 11.5898 100.965 12.4759 100.992 13.3917V42.6286ZM111.859 16.7628C112.616 16.3661 113.462 16.1685 114.318 16.1889C115.156 16.1778 115.983 16.3806 116.719 16.7777C117.426 17.1716 118.029 17.7259 118.477 18.3949C118.981 19.1559 119.352 19.9959 119.572 20.8791C119.836 21.9063 119.967 22.9621 119.964 24.0217C119.964 26.3097 119.459 28.2449 118.512 29.6982C117.566 31.1514 116.202 31.8569 114.328 31.8569C112.454 31.8569 111.091 31.1986 110.086 29.7901C109.081 28.3815 108.579 26.4413 108.579 24.0217C108.571 22.9593 108.698 21.9001 108.958 20.8692C109.179 19.9821 109.557 19.1409 110.076 18.385C110.538 17.7168 111.148 17.162 111.859 16.7628Z" fill="#000546"/>
<path d="M45.7937 16.9738L35.4493 26.1852H9.82936C7.43965 26.182 5.13133 27.0444 3.33966 28.6098L16.2613 17.1005L16.4596 16.9266L32.6487 2.49586C35.2591 0.171442 38.9239 -0.59785 42.2626 0.477764C45.6013 1.55338 48.1068 4.31049 48.8351 7.71051C49.5635 11.1105 48.4041 14.6369 45.7937 16.9614V16.9738Z" fill="#000546"/>
<path d="M9.82991 19.4729C15.2588 19.4729 19.6598 15.1163 19.6598 9.74224C19.6598 4.36817 15.2588 0.0116272 9.82991 0.0116272C4.401 0.0116272 0 4.36817 0 9.74224C0 15.1163 4.401 19.4729 9.82991 19.4729Z" fill="#000546"/>
<path d="M9.83067 26.1836C7.44096 26.1804 5.13264 27.0428 3.34097 28.6082L3.25816 28.6827C-0.777833 32.2759 -1.10704 38.4276 2.52286 42.4228C6.15276 46.418 12.3672 46.7439 16.4032 43.1507L35.4532 26.1861L9.83067 26.1836Z" fill="#434664"/>
<path d="M35.4364 26.1927L16.3844 43.1573C14.5804 44.7631 12.2382 45.6484 9.81207 45.6416L39.2056 45.6415C44.8753 45.5518 48.8782 41.3294 48.8782 35.9121C48.8782 30.4948 44.5725 26.2676 39.2056 26.1827L35.4364 26.1927Z" fill="#000546"/>
</svg>
