<svg width="16" height="12" viewBox="0 0 16 12" fill="none" xmlns="http://www.w3.org/2000/svg">
<path d="M12.3874 11.137C10.3446 11.137 8.73159 9.48068 8.73159 7.43786C8.73159 5.39504 10.4094 3.73876 12.4522 3.73876C12.4726 3.73876 12.5034 3.74153 12.5239 3.74187C11.7162 3.09869 10.7017 2.71111 9.59126 2.71111C9.08038 2.71111 8.66925 2.29687 8.66925 1.78634C8.66925 1.2758 8.99794 0.861561 9.50882 0.861561C13.1348 0.861907 15.9999 3.81184 15.9999 7.43786C15.9999 7.43855 15.9999 7.43925 15.9999 7.44028C15.9999 9.48207 14.4295 11.137 12.3874 11.137Z" fill="black"/>
<path d="M3.72335 11.137C1.68053 11.137 0.0647691 9.48068 0.0647692 7.43786C0.0647694 5.39504 1.74114 3.73876 3.78431 3.73876C3.80474 3.73876 3.83488 3.74153 3.85531 3.74188C3.0476 3.09869 2.03278 2.71111 0.922352 2.71111C0.411474 2.71111 7.72826e-07 2.29687 8.17458e-07 1.78634C8.6209e-07 1.27581 0.33389 0.861563 0.844768 0.861563C4.47079 0.861909 7.34106 3.81184 7.34106 7.43786C7.34106 7.43855 7.34106 7.43925 7.34106 7.44029C7.34106 9.48207 5.76547 11.137 3.72335 11.137Z" fill="black"/>
</svg>
