<svg width="34" height="34" viewBox="0 0 34 34" fill="none" xmlns="http://www.w3.org/2000/svg">
<path d="M30.0186 7.70312H28.6875V6.37208C28.6875 4.17669 26.9014 2.39062 24.7061 2.39062H3.98438C1.78739 2.39062 0 4.17802 0 6.375V27.625C0 29.822 1.78739 31.6094 3.98438 31.6094H30.0186C32.214 31.6094 34 29.8233 34 27.628V11.6846C34 9.48919 32.2139 7.70312 30.0186 7.70312ZM3.98438 5.04688H24.7061C25.4368 5.04688 26.0312 5.64134 26.0312 6.37208V7.70312H3.98438C3.25205 7.70312 2.65625 7.10733 2.65625 6.375C2.65625 5.64267 3.25205 5.04688 3.98438 5.04688ZM31.3438 22.3125H26.0312C24.5666 22.3125 23.375 21.1209 23.375 19.6562C23.375 18.1916 24.5666 17 26.0312 17H31.3438V22.3125ZM31.3438 14.3438H26.0312C23.1019 14.3438 20.7188 16.7269 20.7188 19.6562C20.7188 22.5856 23.1019 24.9688 26.0312 24.9688H31.3438V27.628C31.3438 28.3587 30.7493 28.9531 30.0186 28.9531H3.98438C3.25205 28.9531 2.65625 28.3573 2.65625 27.625V10.1309C3.07195 10.2784 3.5188 10.3594 3.98438 10.3594H30.0186C30.7493 10.3594 31.3438 10.9538 31.3438 11.6845V14.3438Z" fill="black"/>
</svg>
