<svg width="34" height="34" viewBox="0 0 34 34" fill="none" xmlns="http://www.w3.org/2000/svg">
<g clip-path="url(#clip0_1_286)">
<path d="M9.97417 16.6669C8.16719 14.8197 7.17188 12.391 7.17188 9.82812C7.17188 4.40875 11.5806 0 17 0C22.4194 0 26.8281 4.40875 26.8281 9.82812C26.8281 14.4537 23.6155 18.3429 19.3045 19.3826C18.8464 20.1808 17.9862 20.7188 17 20.7188C15.5331 20.7188 14.3438 19.5294 14.3438 18.0625C14.3438 16.5956 15.5331 15.4062 17 15.4062C17.9437 15.4062 18.7717 15.8988 19.243 16.6405C22.1024 15.6965 24.1719 12.9998 24.1719 9.82812C24.1719 5.87358 20.9545 2.65625 17 2.65625C13.0455 2.65625 9.82812 5.87358 9.82812 9.82812C9.82812 11.6924 10.5544 13.4615 11.873 14.8096C12.3858 15.3339 12.3767 16.1746 11.8525 16.6877C11.328 17.2005 10.4873 17.1914 9.97417 16.6669ZM31.303 21.5828C30.1762 20.5927 28.8097 19.7372 27.2411 19.0402C26.5708 18.7424 25.7861 19.0443 25.4881 19.7146C25.1903 20.3849 25.4922 21.1698 26.1625 21.4676C27.4852 22.0554 28.625 22.7654 29.5497 23.5781C30.6898 24.5799 31.3438 26.0305 31.3438 27.5586V30.0156C31.3438 30.7479 30.7479 31.3438 30.0156 31.3438H3.98438C3.25209 31.3438 2.65625 30.7479 2.65625 30.0156V27.5586C2.65625 26.0305 3.3102 24.5799 4.45026 23.5781C5.56334 22.5999 7.57394 21.2565 10.8307 20.4106C11.5407 20.2262 11.9666 19.5009 11.7822 18.7912C11.5977 18.0812 10.8727 17.6552 10.1628 17.8397C6.4012 18.8168 4.02666 20.4145 2.69698 21.5828C0.982864 23.0886 0 25.2668 0 27.5586V30.0156C0 32.2127 1.78726 34 3.98438 34H30.0156C32.2127 34 34 32.2127 34 30.0156V27.5586C34 25.2668 33.0171 23.0886 31.303 21.5828Z" fill="black"/>
</g>
<defs>
<clipPath id="clip0_1_286">
<rect width="34" height="34" fill="white"/>
</clipPath>
</defs>
</svg>
