<svg width="25" height="25" viewBox="0 0 25 25" fill="none" xmlns="http://www.w3.org/2000/svg">
<rect x="0.359375" width="24.36" height="24.36" rx="12.18" fill="#F3F8FC"/>
<path d="M18.4551 8.80992C18.0362 9.00667 17.5931 9.13745 17.1396 9.1982C17.6176 8.89283 17.9749 8.40926 18.1439 7.83914C17.6965 8.12488 17.207 8.32612 16.6966 8.43417C16.3836 8.07402 15.9772 7.82362 15.5302 7.71552C15.0833 7.60741 14.6165 7.64661 14.1905 7.82802C13.7645 8.00942 13.399 8.32464 13.1416 8.73269C12.8842 9.14073 12.7468 9.62273 12.7472 10.116C12.7454 10.3043 12.7632 10.4921 12.8001 10.6761C11.8919 10.6282 11.0033 10.3743 10.1924 9.93123C9.3815 9.48812 8.66658 8.86572 8.09438 8.10469C7.80061 8.6455 7.70957 9.28664 7.83985 9.89727C7.97013 10.5079 8.3119 11.042 8.79541 11.3905C8.43419 11.38 8.0806 11.2761 7.76444 11.0877V11.1144C7.76504 11.6822 7.94724 12.2323 8.28039 12.6723C8.61354 13.1123 9.07728 13.4153 9.59357 13.5302C9.39825 13.5857 9.19696 13.6129 8.99498 13.6112C8.84995 13.614 8.70506 13.5999 8.56283 13.5692C8.71038 14.0571 8.99475 14.4838 9.37678 14.7905C9.75882 15.0972 10.2197 15.2688 10.6961 15.2817C9.88801 15.9623 8.89139 16.3315 7.86553 16.3303C7.68289 16.3316 7.50036 16.3203 7.31906 16.2965C8.36297 17.0209 9.57941 17.404 10.8213 17.3997C15.0223 17.3997 17.3192 13.6524 17.3192 10.4041C17.3192 10.2954 17.3157 10.1905 17.3108 10.0863C17.7611 9.73929 18.1489 9.30675 18.4551 8.80992Z" fill="#03A9F4"/>
</svg>
