<svg width="39" height="39" viewBox="0 0 39 39" fill="none" xmlns="http://www.w3.org/2000/svg">
<path fill-rule="evenodd" clip-rule="evenodd" d="M19.4994 38.5C12.2959 38.5 6.43671 32.6409 6.43671 25.4375C6.43671 18.2341 12.2959 12.375 19.4994 12.375C26.7005 12.375 32.5621 18.2341 32.5621 25.4375C32.5621 32.6409 26.7005 38.5 19.4994 38.5ZM26.3656 27.2852L24.1093 24.459L24.3563 20.7659C24.3848 20.355 24.1972 19.9584 23.8576 19.7185C23.651 19.5736 23.4111 19.5 23.1688 19.5C23.0121 19.5 22.8529 19.5309 22.7057 19.595L19.4994 20.9559L16.2955 19.595C15.9155 19.4335 15.4785 19.4786 15.1436 19.7185C14.8063 19.9584 14.6187 20.355 14.6448 20.7659L14.8918 24.459L12.6355 27.2852C12.3838 27.5988 12.3102 28.0191 12.436 28.4015C12.5619 28.7839 12.8731 29.0736 13.2626 29.1758L16.6304 30.0569L18.4781 33.1681C18.9056 33.8901 20.0931 33.8901 20.5183 33.1681L22.3661 30.0569L25.7362 29.1758C26.1234 29.0736 26.4345 28.7815 26.5627 28.4015C26.691 28.0215 26.615 27.6011 26.3656 27.2852Z" fill="white"/>
<path d="M6.13982 17.7354L0.658247 8.21875C0.418369 7.80076 0.453998 7.28065 0.746125 6.90064C1.03825 6.52063 1.52989 6.34962 1.99539 6.47787L8.96849 8.35175L10.8234 1.37878C10.9469 0.915634 11.3388 0.571247 11.8138 0.507141C11.866 0.502392 11.9207 0.5 11.9705 0.5C12.3909 0.5 12.7852 0.723274 12.9989 1.09375L18.1836 10.0665C13.0322 10.5035 8.60511 13.4794 6.13982 17.7354Z" fill="white"/>
<path d="M32.859 17.7354L38.3429 8.21875C38.5804 7.80076 38.5472 7.28065 38.2527 6.903C37.9582 6.52303 37.4689 6.35201 37.0034 6.48026L30.0303 8.35414L28.1754 1.38113C28.0496 0.918022 27.66 0.573639 27.1827 0.509495C27.1328 0.502392 27.0782 0.5 27.0283 0.5C26.6079 0.5 26.2136 0.723274 25.9999 1.09375L20.8152 10.0665C25.9666 10.5035 30.3961 13.4794 32.859 17.7354Z" fill="white"/>
</svg>
