<svg width="34" height="34" viewBox="0 0 34 34" fill="none" xmlns="http://www.w3.org/2000/svg">
<g clip-path="url(#clip0_1_269)">
<path d="M4.08372 18.5678C4.0181 18.021 3.98438 17.4778 3.98438 17C3.98438 9.86781 9.86781 3.98438 17 3.98438C20.3268 3.98438 23.4414 5.32573 25.7324 7.41753L24.5835 8.58638C24.3247 8.84526 24.2251 9.22372 24.3247 9.58247C24.4442 9.92099 24.7231 10.1801 25.0816 10.2598C25.2821 10.3 31.8693 12.4226 31.4498 12.3383C31.9834 12.516 32.7725 11.9469 32.6254 11.163C32.585 10.9622 31.1266 3.64482 31.2109 4.06401C31.1313 3.70552 30.8722 3.40669 30.5137 3.30708C30.1752 3.20747 29.7964 3.30708 29.5376 3.56596L28.5614 4.52211C25.5532 1.71333 21.4225 0 17 0C7.65669 0 0 7.65669 0 17V17.0397C0 17.6013 0.0256806 18.0353 0.0555115 18.3673C0.0951996 18.8072 0.419449 19.1675 0.852646 19.2544L2.89905 19.6635C3.56519 19.7968 4.16414 19.2384 4.08372 18.5678Z" fill="#491757"/>
<path d="M33.1531 14.7438L31.1008 14.3257C30.4339 14.1898 29.8308 14.7488 29.9127 15.4224C29.9838 16.0038 30.0154 16.569 30.0154 16.9998C30.0154 24.1318 24.132 30.0155 16.9998 30.0155C13.673 30.0155 10.5584 28.6741 8.2674 26.5623L9.41628 25.4135C9.67516 25.1546 9.77477 24.7761 9.67516 24.4174C9.55558 24.0786 9.27672 23.8197 8.91823 23.7401C8.71772 23.6996 2.13053 21.5772 2.54997 21.6615C2.2112 21.6019 1.87242 21.7015 1.65349 21.9404C1.41432 22.1596 1.31471 22.5181 1.37438 22.8369C1.41484 23.0374 2.87345 30.2884 2.78914 29.8692C2.86852 30.2279 3.12766 30.5268 3.48615 30.6261C3.90196 30.7304 4.24904 30.6043 4.46227 30.3672L5.41867 29.4111C8.42667 32.2201 12.5573 33.9999 16.9998 33.9999C26.3431 33.9999 33.9998 26.3432 33.9998 16.9998V16.9399C33.9998 16.4984 33.9837 16.065 33.9469 15.6341C33.909 15.1939 33.5861 14.8323 33.1531 14.7438Z" fill="#491757"/>
</g>
<defs>
<clipPath id="clip0_1_269">
<rect width="34" height="34" fill="white"/>
</clipPath>
</defs>
</svg>
